<svg width="204" height="44" viewBox="0 0 204 44" fill="none" xmlns="http://www.w3.org/2000/svg">
<g clip-path="url(#clip0_1_6306)">
<path fill-rule="evenodd" clip-rule="evenodd" d="M60.5116 17.5705V5H57.4883V21.9494H59.8279L74.5351 9.37899V21.9494H77.5584V5H75.2211L60.5116 17.5705ZM81.1406 21.9494H84.0011V9.99196H97.42V21.9494H100.28V7.32184H81.1406V21.9494ZM112.77 7.02234C116.109 7.02234 118.665 7.73747 120.365 9.1445C121.93 10.4447 122.725 12.2929 122.725 14.6357C122.725 16.9784 121.932 18.8243 120.367 20.1268C118.667 21.5362 116.111 22.2513 112.772 22.2513C109.432 22.2513 106.876 21.5362 105.179 20.1268C103.597 18.815 102.795 16.9784 102.795 14.6357C102.795 12.2929 103.595 10.4447 105.176 9.1445C106.876 7.73747 109.43 7.02234 112.77 7.02234ZM105.676 14.6357C105.676 17.9164 107.997 19.5115 112.77 19.5115C117.544 19.5115 119.863 17.9164 119.863 14.6357C119.863 11.3549 117.537 9.75979 112.77 9.75979C108.002 9.75979 105.676 11.3549 105.676 14.6357ZM123.723 9.99196H131.165V21.9494H134.025V9.99196H141.467V7.32184H123.723V9.99196ZM152.446 6.99912C155.785 6.99912 158.341 7.71192 160.041 9.12128C161.604 10.4378 162.397 12.2929 162.397 14.631C162.398 14.903 162.373 15.1744 162.32 15.4413L162.264 15.7223H145.457C145.519 16.2828 145.7 16.8236 145.99 17.3076C146.28 17.7916 146.671 18.2076 147.136 18.5271C148.339 19.3769 150.118 19.8087 152.443 19.8087C155.853 19.8087 158.064 18.8869 158.995 17.0713L159.092 16.8832H162.099L161.937 17.3476C160.785 20.5981 157.592 22.2466 152.443 22.2466C149.104 22.2466 146.548 21.5315 144.85 20.1222C143.259 18.8266 142.469 16.9807 142.469 14.638C142.469 12.2952 143.271 10.4401 144.85 9.1236C146.553 7.71192 149.106 6.99912 152.446 6.99912ZM152.443 9.46491C150.111 9.46491 148.325 9.89677 147.136 10.7466V10.7396C146.669 11.0548 146.276 11.4684 145.986 11.9514C145.696 12.4344 145.515 12.975 145.457 13.5351H159.427C159.362 12.9762 159.177 12.438 158.884 11.9572C158.592 11.4763 158.199 11.0642 157.732 10.7489C156.539 9.89678 154.776 9.46491 152.443 9.46491ZM184.562 7.32184H180.969L175.248 13.289H167.816V7.32184H164.955V21.9494H167.816V15.9591H175.248L180.969 21.9494H184.562L177.555 14.6356L184.562 7.32184ZM200.539 9.85497V7.32185L203.399 7.32417V21.9518H200.539V19.4186C198.997 21.3017 196.392 22.2536 192.771 22.2536C189.676 22.2536 187.297 21.5362 185.704 20.1222C184.222 18.8034 183.469 16.9575 183.469 14.6356C183.469 12.3138 184.222 10.4679 185.704 9.15146C187.297 7.73746 189.676 7.02001 192.771 7.02001C196.392 7.02001 198.997 7.97196 200.539 9.85497ZM193.446 19.5115C198.213 19.5115 200.539 17.9164 200.539 14.6356C200.539 11.3549 198.213 9.75978 193.446 9.75978C188.678 9.75978 186.353 11.3549 186.353 14.6356C186.353 17.9164 188.678 19.5115 193.446 19.5115Z" fill="white"/>
<path fill-rule="evenodd" clip-rule="evenodd" d="M9.96204 2C5.37704 2 1.66016 5.71689 1.66016 10.3019V22.4396V36.0377C1.66016 40.6227 5.37704 44.3396 9.96205 44.3396H35.6979C40.2829 44.3396 43.9998 40.6227 43.9998 36.0377V22.4396V10.3019C43.9998 5.71688 40.2829 2 35.6979 2H9.96204ZM43.9998 22.4396C43.9998 21.96 43.9744 21.4839 43.9418 21.0113C43.1921 15.7603 38.2808 11.9622 32.2975 11.9622C31.2791 11.9701 30.2648 12.0884 29.2733 12.3149C26.81 12.8508 24.4744 13.8395 22.3917 15.2278C19.8564 16.9417 16.9191 19.5866 15.2566 21.1277L12.9604 18.6309C12.3538 17.9229 11.5943 17.3539 10.736 16.9644C9.87768 16.5749 8.94173 16.3745 7.9948 16.3775C6.46198 16.36 4.97528 16.8877 3.81365 17.8616C2.65203 18.8356 1.89532 20.1887 1.68551 21.6673C1.66016 21.9106 1.66016 22.1892 1.66016 22.4396C1.66016 22.69 1.66016 22.9016 1.67827 23.1449C1.89111 24.6228 2.64918 25.9747 3.81091 26.9482C4.97264 27.9216 6.45857 28.45 7.99118 28.4347C8.89329 28.4287 9.78498 28.2464 10.6134 27.8987C11.4455 27.5568 12.1881 27.0373 12.7865 26.3787L15.2856 23.688C15.392 23.799 15.5026 23.9148 15.6171 24.0347C17.2308 25.7239 19.629 28.2342 21.9861 29.8806C25.1624 32.1094 28.8676 33.3084 32.1961 33.1109C37.915 32.7582 43.337 28.8791 43.9708 23.4976C43.9889 23.1449 43.9998 22.7922 43.9998 22.4396ZM10.1824 25.9379L10.512 25.6452L13.9528 22.3973L10.5482 19.1423L10.2186 18.8461L9.85644 18.6027L9.47614 18.3841L9.07412 18.1866L8.64674 18.0385L8.21573 17.9433L7.763 17.8692L7.28491 17.8445L6.77785 17.8692L6.32512 17.9433L5.87239 18.0632L5.44139 18.2113L5.03936 18.4088L4.65906 18.6274L4.29688 18.8707L3.97091 19.167L3.66667 19.4844L3.41314 19.837L3.18858 20.1897L2.98576 20.6058L2.83364 21.0219L2.70688 21.4627L2.63444 21.9282L2.60909 22.3937L2.63444 22.8593L2.70688 23.3001L2.83364 23.7409L2.98576 24.157L3.21394 24.5485L3.43849 24.9011L3.69202 25.2538L3.99264 25.5712L4.32223 25.8674L4.68442 26.1354L5.06471 26.3541L5.48485 26.5515L5.91585 26.6997L6.36858 26.8196L6.80321 26.8936L7.28491 26.9183H7.72678L8.17952 26.8442L8.62138 26.7737L9.05601 26.6256L9.45804 26.4281L9.82022 26.2095L10.1824 25.9379ZM40.6459 24.0548L40.7944 23.2225L40.8415 22.355L40.7908 21.498L40.6423 20.6657L40.4141 19.8582L40.0845 19.0753L39.6825 18.3418L39.2044 17.6364L38.6503 17.0017L38.0418 16.3881L37.3609 15.852L36.6365 15.3618L35.8542 14.9457L35.0212 14.593L34.1628 14.2968L33.2573 14.1029L32.3229 13.9794L31.3377 13.9301H31.0371L30.7329 13.9547L30.4323 13.9794L30.128 14.0288L29.8274 14.0782L29.5232 14.1628L28.9183 14.3074L28.7662 14.3321L28.3388 14.4308L27.6543 14.6318L26.7706 14.9492L25.713 15.4147L24.5033 16.0248L23.1922 16.8077L21.805 17.7881L19.4073 19.7206L17.7231 21.163L16.738 22.0693L16.412 22.3867L16.814 22.8522L17.926 24.0512L19.6137 25.7157L20.6605 26.6503L21.7941 27.5778L23.0292 28.4841L24.228 29.2211L25.4124 29.8065L26.6003 30.272L27.7847 30.5647L28.969 30.7622L30.1534 30.861H31.3595L32.3808 30.7728L33.3624 30.6L34.2968 30.3814L35.1805 30.0851L36.0099 29.7325L36.7923 29.3163L37.5166 28.8262L38.1831 28.2901L38.7626 27.7012L39.295 27.0664L39.7477 26.3787L40.1099 25.6452L40.4141 24.8623L40.6459 24.0548Z" fill="white"/>
<rect x="57" y="27.3962" width="83.0189" height="16.6038" rx="2.49057" fill="white"/>
<path d="M70.6237 36.7814L75.4056 31.8875H76.3146V39.3592H75.1565V33.606L70.6237 38.2509L66.1033 33.606V39.3592H64.9452V31.8875H65.8542L70.6237 36.7814Z" fill="#3B8BFF"/>
<path d="M82.827 31.7256C85.0104 31.7256 86.459 32.3731 87.173 33.6682V31.8875H88.3311V39.3592H87.173V37.5784C86.459 38.8735 85.0104 39.5211 82.827 39.5211C81.2081 39.5211 79.9877 39.1558 79.1658 38.4252C78.4104 37.7528 78.0326 36.8188 78.0326 35.6233C78.0326 34.4279 78.4104 33.4939 79.1658 32.8214C79.9877 32.0909 81.2081 31.7256 82.827 31.7256ZM83.1881 38.4252C85.8447 38.4252 87.173 37.4912 87.173 35.6233C87.173 33.7554 85.8447 32.8214 83.1881 32.8214C80.5315 32.8214 79.2032 33.7554 79.2032 35.6233C79.2032 37.4912 80.5315 38.4252 83.1881 38.4252Z" fill="#3B8BFF"/>
<path d="M95.9871 31.7256C97.6059 31.7256 98.8263 32.0909 99.6482 32.8214C100.404 33.4939 100.781 34.4279 100.781 35.6233C100.781 36.8188 100.404 37.7528 99.6482 38.4252C98.8263 39.1558 97.6059 39.5211 95.9871 39.5211C93.812 39.5211 92.3675 38.8735 91.6535 37.5784V41.8497H90.4954V31.8875H91.6535V33.6682C92.3675 32.3731 93.812 31.7256 95.9871 31.7256ZM95.6384 38.4252C98.295 38.4252 99.6233 37.4912 99.6233 35.6233C99.6233 33.7554 98.295 32.8214 95.6384 32.8214C92.9818 32.8214 91.6535 33.7554 91.6535 35.6233C91.6535 37.4912 92.9818 38.4252 95.6384 38.4252Z" fill="#3B8BFF"/>
<path d="M111.003 31.8875H112.41L108.836 35.6233L112.41 39.3592H111.003L107.939 36.1463H103.693V39.3592H102.535V31.8875H103.693V35.0879H107.939L111.003 31.8875Z" fill="#3B8BFF"/>
<path d="M117.604 31.7131C119.355 31.7131 120.671 32.0784 121.551 32.809C122.348 33.4814 122.747 34.4195 122.747 35.6233C122.747 35.7645 122.734 35.8973 122.709 36.0218H113.656C113.706 36.8105 114.038 37.4248 114.652 37.8648C115.333 38.3463 116.317 38.5871 117.604 38.5871C119.513 38.5871 120.738 38.0641 121.277 37.018H122.51C121.921 38.6867 120.285 39.5211 117.604 39.5211C115.852 39.5211 114.536 39.1558 113.656 38.4252C112.851 37.7611 112.448 36.8271 112.448 35.6233C112.448 34.4195 112.851 33.4814 113.656 32.809C114.536 32.0784 115.852 31.7131 117.604 31.7131ZM117.604 32.6595C116.309 32.6595 115.325 32.9003 114.652 33.3818C114.038 33.8135 113.706 34.4237 113.656 35.2124H121.551C121.493 34.4237 121.157 33.8135 120.542 33.3818C119.87 32.9003 118.89 32.6595 117.604 32.6595Z" fill="#3B8BFF"/>
<path d="M123.654 32.946V31.8875H132.782V32.946H128.797V39.3592H127.639V32.946H123.654Z" fill="#3B8BFF"/>
<path fill-rule="evenodd" clip-rule="evenodd" d="M66.1034 33.606V39.3592H64.9453V31.8875H65.8544L70.6238 36.7815L75.4057 31.8875H76.3148V39.3592H75.1567V33.606L70.6238 38.2509L66.1034 33.606ZM74.9906 34.0139L70.6237 38.4888L66.2695 34.0147V39.5252H64.7793V31.7215H65.9244L70.624 36.5437L75.3358 31.7215H76.4808V39.5252H74.9906V34.0139ZM87.0071 31.7215H88.4973V39.5252H87.0071V38.1295C86.18 39.1806 84.7688 39.6871 82.8271 39.6871C81.1864 39.6871 79.9195 39.3172 79.0557 38.5493C78.2583 37.8396 77.8667 36.8568 77.8667 35.6233C77.8667 34.3899 78.2582 33.4072 79.0556 32.6974C79.9195 31.9295 81.1864 31.5596 82.8271 31.5596C84.7688 31.5596 86.18 32.0661 87.0071 33.1172V31.7215ZM87.1731 33.6683V31.8875H88.3313V39.3592H87.1731V37.5784C87.1216 37.6719 87.0663 37.762 87.0071 37.8487C86.2463 38.9636 84.853 39.5211 82.8271 39.5211C81.2082 39.5211 79.9879 39.1558 79.166 38.4252C78.4105 37.7528 78.0328 36.8188 78.0328 35.6233C78.0328 34.4279 78.4105 33.4939 79.166 32.8215C79.9879 32.0909 81.2082 31.7256 82.8271 31.7256C84.853 31.7256 86.2463 32.2831 87.0071 33.398C87.0663 33.4847 87.1216 33.5748 87.1731 33.6683ZM86.0814 37.5889C86.6942 37.1581 87.0071 36.5126 87.0071 35.6233C87.0071 34.7341 86.6942 34.0886 86.0814 33.6578C85.458 33.2194 84.5022 32.9875 83.1882 32.9875C81.8743 32.9875 80.9185 33.2194 80.2951 33.6578C79.6823 34.0886 79.3694 34.7341 79.3694 35.6233C79.3694 36.5126 79.6823 37.1581 80.2951 37.5889C80.9185 38.0273 81.8743 38.2592 83.1882 38.2592C84.5022 38.2592 85.458 38.0273 86.0814 37.5889ZM99.7587 32.6974C100.556 33.4072 100.948 34.3899 100.948 35.6233C100.948 36.8568 100.556 37.8395 99.7587 38.5493C98.8949 39.3171 97.628 39.6871 95.9872 39.6871C94.0527 39.6871 92.6459 39.1805 91.8197 38.1297V42.0158H90.3295V31.7215H91.8197V33.117C92.6459 32.0662 94.0527 31.5596 95.9872 31.5596C97.628 31.5596 98.8949 31.9295 99.7587 32.6974ZM91.8197 33.3979C91.7605 33.4846 91.7052 33.5748 91.6536 33.6683V31.8875H90.4955V41.8498H91.6536V37.5784C91.7052 37.6719 91.7605 37.762 91.8197 37.8488C92.58 38.9637 93.9691 39.5211 95.9872 39.5211C97.6061 39.5211 98.8265 39.1558 99.6484 38.4252C100.404 37.7528 100.782 36.8188 100.782 35.6233C100.782 34.4279 100.404 33.4939 99.6484 32.8215C98.8265 32.0909 97.6061 31.7256 95.9872 31.7256C93.9691 31.7256 92.58 32.283 91.8197 33.3979ZM98.5317 37.5889C99.1445 37.1581 99.4574 36.5126 99.4574 35.6233C99.4574 34.7341 99.1445 34.0886 98.5317 33.6578C97.9083 33.2194 96.9525 32.9875 95.6385 32.9875C94.3246 32.9875 93.3688 33.2194 92.7454 33.6578C92.1326 34.0886 91.8197 34.7341 91.8197 35.6233C91.8197 36.5126 92.1326 37.1581 92.7454 37.5889C93.3688 38.0273 94.3246 38.2592 95.6385 38.2592C96.9525 38.2592 97.9083 38.0273 98.5317 37.5889ZM110.932 31.7215H112.799L109.066 35.6233L112.799 39.5252H110.932L107.868 36.3124H103.859V39.5252H102.369V31.7215H103.859V34.9218H107.868L110.932 31.7215ZM107.939 35.0879H103.693V31.8875H102.535V39.3592H103.693V36.1464H107.939L111.003 39.3592H112.41L108.836 35.6233L112.41 31.8875H111.003L107.939 35.0879ZM121.657 32.6813L121.658 32.6821C122.499 33.3912 122.913 34.3791 122.913 35.6233C122.913 35.7742 122.9 35.918 122.872 36.0544L122.846 36.1879H113.838C113.92 36.8434 114.223 37.3532 114.749 37.7295C115.39 38.1829 116.334 38.4211 117.604 38.4211C119.493 38.4211 120.634 37.9037 121.13 36.9419L121.176 36.852H122.745L122.667 37.0734C122.042 38.8413 120.313 39.6871 117.604 39.6871C115.833 39.6871 114.473 39.3186 113.551 38.5533C112.701 37.8526 112.282 36.8682 112.282 35.6233C112.282 34.3785 112.701 33.3904 113.55 32.6816C114.472 31.9161 115.833 31.5471 117.604 31.5471C119.375 31.5471 120.735 31.9158 121.657 32.6813ZM113.656 38.4252C114.536 39.1558 115.852 39.5211 117.604 39.5211C120.195 39.5211 121.809 38.7421 122.447 37.1841C122.469 37.1297 122.49 37.0744 122.51 37.0181H121.277C120.738 38.0641 119.513 38.5871 117.604 38.5871C116.317 38.5871 115.333 38.3464 114.652 37.8649C114.082 37.4562 113.755 36.8972 113.671 36.1879C113.665 36.1334 113.66 36.0781 113.656 36.0218H122.709C122.734 35.8973 122.747 35.7645 122.747 35.6233C122.747 34.4196 122.348 33.4815 121.551 32.809C120.671 32.0784 119.355 31.7132 117.604 31.7132C115.852 31.7132 114.536 32.0784 113.656 32.809C112.851 33.4815 112.448 34.4196 112.448 35.6233C112.448 36.8271 112.851 37.7611 113.656 38.4252ZM114.749 33.5168L114.748 33.5177C114.223 33.8863 113.92 34.3914 113.838 35.0464H121.367C121.278 34.3916 120.972 33.8863 120.447 33.5177L120.446 33.5168C119.813 33.0639 118.874 32.8256 117.604 32.8256C116.325 32.8256 115.382 33.064 114.749 33.5168ZM121.535 35.0464C121.542 35.1008 121.547 35.1561 121.551 35.2124H113.656C113.66 35.1561 113.665 35.1008 113.671 35.0464C113.755 34.3376 114.082 33.7827 114.652 33.3818C115.325 32.9003 116.309 32.6596 117.604 32.6596C118.891 32.6596 119.87 32.9003 120.543 33.3818C121.113 33.7827 121.444 34.3376 121.535 35.0464ZM123.488 33.112V31.7215H132.948V33.112H128.963V39.5252H127.473V33.112H123.488ZM127.639 32.946V39.3592H128.797V32.946H132.782V31.8875H123.654V32.946H127.639ZM87.1731 35.6233C87.1731 37.4913 85.8448 38.4252 83.1882 38.4252C80.5316 38.4252 79.2033 37.4913 79.2033 35.6233C79.2033 33.7554 80.5316 32.8215 83.1882 32.8215C85.8448 32.8215 87.1731 33.7554 87.1731 35.6233ZM99.6234 35.6233C99.6234 37.4913 98.2951 38.4252 95.6385 38.4252C92.9819 38.4252 91.6536 37.4913 91.6536 35.6233C91.6536 33.7554 92.9819 32.8215 95.6385 32.8215C98.2951 32.8215 99.6234 33.7554 99.6234 35.6233Z" fill="#3B8BFF"/>
</g>
<defs>
<clipPath id="clip0_1_6306">
<rect width="203.396" height="44" fill="white"/>
</clipPath>
</defs>
</svg>
