<svg width="1520" height="322" viewBox="0 0 1520 322" fill="none" xmlns="http://www.w3.org/2000/svg">
<path fill-rule="evenodd" clip-rule="evenodd" d="M930.506 -777.998C879.475 -778.113 828.613 -772.115 778.998 -760.132C655.342 -732.17 538.145 -680.756 433.705 -608.654C306.226 -518.708 159.646 -382.521 76.2757 -302.387L-39.0655 -431.092C-69.4025 -467.668 -107.387 -497.093 -150.323 -517.28C-193.259 -537.467 -240.095 -547.921 -287.507 -547.899C-463.37 -547.899 -606 -408.155 -606 -235.908C-606 -63.6608 -463.452 75.8378 -287.629 75.8378C-242.428 75.9663 -197.704 66.5715 -156.348 48.2609C-114.991 29.9502 -77.9216 3.13116 -47.5372 -30.4624L77.1318 -170.002C158.384 -81.2003 287.003 60.8333 413.382 152.987C572.221 268.282 758.675 330.958 924.805 320.165C1230.71 300.377 1519.43 73.3439 1519.43 -236.112C1519.43 -545.569 1255.72 -777.998 930.506 -777.998ZM-161.006 -67.5857L-177.582 -52.8672L-195.136 -39.5797L-214.074 -28.4182L-234.154 -18.7693L-255.25 -11.1649L-277.121 -5.44086L-300.01 -1.76129L-311.496 -1.14801L-323.388 -0.739136L-347.255 -1.76129L-370.266 -5.44086L-392.748 -11.1649L-413.968 -19.0146L-434.332 -29.1541L-453.759 -41.1333L-471.72 -54.4617L-488.011 -69.9161L-503.162 -86.5153L-516.318 -104.791L-528.169 -124.211L-537.78 -144.653L-545.926 -166.241L-551.506 -188.727L-555.05 -212.195L-556.19 -236.276L-555.05 -260.275L-551.506 -283.743L-545.846 -306.311L-537.7 -327.858L-528.088 -348.791L-516.236 -368.211L-503.081 -386.2L-487.929 -403.086L-471.638 -418.172L-453.677 -431.501L-434.332 -443.275L-413.968 -453.415L-392.748 -461.305L-370.266 -467.111L-347.255 -470.668L-323.388 -471.69L-300.01 -470.668L-277.121 -467.111L-255.25 -461.673L-234.154 -454.069L-214.074 -444.42L-195.136 -432.891L-177.582 -419.93L-161.006 -405.212L9.80817 -236.276L-161.006 -67.5857ZM1355.02 -191.63L1347.85 -148.129L1336.73 -106.794L1321.66 -66.8498L1302.35 -28.7861L1279.46 7.11066L1252.58 40.5952L1222.89 71.545L1189.54 99.551L1153.37 125.063L1114.27 146.936L1072.32 165.948L1028.21 181.402L981.702 193.341L932.828 201.518L882.407 205.606H822.292L762.747 200.291L703.244 189.497L644.27 172.121L584.358 148.408L524.611 117.826L464.089 79.7628L402.426 33.3586L345.407 -15.4577L293.723 -63.2928L208.927 -149.927L153.334 -212.195L133.621 -236.276L149.424 -252.385L198.298 -299.443L282.564 -374.671L404.381 -474.511L473.619 -524.881L539.069 -565.071L599.347 -596.797L652.659 -620.511L696.768 -636.864L730.736 -647.658L752.24 -653.096L759.693 -654.895L790.524 -662.744L805.92 -666.056L821.356 -668.591L836.751 -670.758L852.186 -672.516L867.216 -673.293L882.611 -673.538L931.281 -671.371L978.281 -664.666L1023.73 -653.872L1067.35 -639.031L1108.9 -620.756L1147.95 -598.842L1184.61 -573.575L1218.37 -545.569L1249.2 -514.374L1276.37 -480.889L1299.99 -444.584L1320.07 -406.438L1335.87 -366.208L1347.6 -324.505L1354.81 -280.963L1357.34 -235.99L1355.02 -191.63Z" fill="#4A94FF"/>
</svg>
