<svg width="1854" height="704" viewBox="0 0 1854 704" fill="none" xmlns="http://www.w3.org/2000/svg">
<path fill-rule="evenodd" clip-rule="evenodd" d="M1264.39 0.639062C1213.35 0.524471 1162.49 6.52238 1112.88 18.5057C989.221 46.4673 872.024 97.8812 767.584 169.984C640.105 259.93 493.525 396.117 410.155 476.251L294.813 347.546C264.476 310.97 226.492 281.544 183.556 261.357C140.62 241.171 93.7843 230.717 46.3722 230.738C-129.492 230.738 -272.121 370.482 -272.121 542.729C-272.121 714.977 -129.573 854.475 46.2499 854.475C91.4505 854.604 136.174 845.209 177.531 826.898C218.888 808.588 255.957 781.769 286.342 748.175L411.011 608.636C492.263 697.437 620.882 839.471 747.261 931.625C906.1 1046.92 1092.55 1109.6 1258.68 1098.8C1564.59 1079.01 1853.31 851.981 1853.31 542.525C1853.31 233.069 1589.6 0.639062 1264.39 0.639062ZM172.873 711.052L156.297 725.77L138.743 739.058L119.805 750.219L99.7254 759.868L78.6285 767.473L56.7581 773.197L33.8684 776.876L22.3828 777.489L10.4905 777.898L-13.3766 776.876L-36.3875 773.197L-58.8695 767.473L-80.0887 759.623L-100.453 749.483L-119.88 737.504L-137.841 724.176L-154.132 708.721L-169.283 692.122L-182.439 673.847L-194.29 654.426L-203.902 633.984L-212.047 612.397L-217.627 589.91L-221.171 566.443L-222.311 542.361L-221.171 518.362L-217.627 494.894L-211.967 472.326L-203.821 450.78L-194.209 429.847L-182.357 410.426L-169.202 392.437L-154.05 375.552L-137.759 360.465L-119.799 347.137L-100.453 335.362L-80.0887 325.223L-58.8695 317.332L-36.3875 311.526L-13.3766 307.969L10.4905 306.947L33.8684 307.969L56.7581 311.526L78.6285 316.964L99.7254 324.569L119.805 334.217L138.743 345.747L156.297 358.707L172.873 373.426L343.687 542.361L172.873 711.052ZM1688.89 587.008L1681.73 630.509L1670.61 671.843L1655.54 711.788L1636.23 749.851L1613.34 785.748L1586.46 819.233L1556.77 850.182L1523.42 878.188L1487.25 903.701L1448.15 925.574L1406.2 944.585L1362.09 960.04L1315.58 971.978L1266.71 980.155L1216.29 984.243H1156.17L1096.63 978.928L1037.12 968.135L978.149 950.759L918.237 927.046L858.49 896.464L797.968 858.4L736.305 811.996L679.286 763.18L627.602 715.345L542.806 628.71L487.213 566.443L467.5 542.361L483.303 526.253L532.177 479.195L616.443 403.967L738.26 304.126L807.498 253.756L872.948 213.567L933.226 181.84L986.538 158.127L1030.65 141.773L1064.61 130.979L1086.12 125.542L1093.57 123.743L1124.4 115.893L1139.8 112.581L1155.23 110.047L1170.63 107.88L1186.07 106.122L1201.09 105.345L1216.49 105.1L1265.16 107.266L1312.16 113.971L1357.61 124.765L1401.23 139.606L1442.77 157.882L1481.83 179.796L1518.49 205.063L1552.25 233.069L1583.08 264.264L1610.25 297.748L1633.87 334.054L1653.95 372.199L1669.75 412.43L1681.48 454.132L1688.69 497.674L1691.22 542.648L1688.89 587.008Z" fill="#4A94FF"/>
</svg>
