<svg width="1920" height="623" viewBox="0 0 1920 623" fill="none" xmlns="http://www.w3.org/2000/svg">
<path fill-rule="evenodd" clip-rule="evenodd" d="M1777.93 0.00199037C1714.92 -0.13956 1652.13 7.26943 1590.88 22.0719C1438.22 56.6119 1293.53 120.121 1164.59 209.187C1007.21 320.294 826.244 488.52 723.318 587.507L580.921 428.522C543.468 383.342 496.573 346.994 443.566 322.057C390.558 297.121 332.736 284.208 274.203 284.234C57.0863 284.234 -119 456.855 -119 669.625C-119 882.396 56.9855 1054.71 274.052 1054.71C329.855 1054.87 385.07 1043.27 436.128 1020.65C487.186 998.03 532.95 964.901 570.462 923.404L724.375 751.037C824.687 860.73 983.475 1036.18 1139.5 1150.01C1335.6 1292.43 1565.79 1369.85 1770.89 1356.52C2148.55 1332.08 2505 1051.63 2505 669.373C2505 287.113 2179.43 0.00199037 1777.93 0.00199037ZM430.377 877.547L409.913 895.729L388.241 912.142L364.861 925.929L340.071 937.848L314.025 947.242L287.025 954.312L258.766 958.858L244.586 959.615L229.904 960.12L200.439 958.858L172.03 954.312L144.274 947.242L118.078 937.545L92.9369 925.02L68.9524 910.223L46.7786 893.759L26.6659 874.669L7.96128 854.164L-8.28083 831.589L-22.9124 807.6L-34.7782 782.349L-44.8345 755.683L-51.7237 727.906L-56.0988 698.917L-57.5056 669.171L-56.0988 639.525L-51.7237 610.536L-44.7351 582.659L-34.6787 556.043L-22.8117 530.186L-8.18018 506.197L8.06071 483.975L26.7666 463.117L46.8793 444.482L69.0531 428.017L92.9369 413.473L118.078 400.948L144.274 391.201L172.03 384.029L200.439 379.635L229.904 378.373L258.766 379.635L287.025 384.029L314.025 390.746L340.071 400.14L364.861 412.058L388.241 426.3L409.913 442.31L430.377 460.491L641.259 669.171L430.377 877.547ZM2302.01 724.32L2293.16 778.056L2279.44 829.115L2260.83 878.456L2237 925.475L2208.74 969.817L2175.55 1011.18L2138.9 1049.41L2097.72 1084L2053.07 1115.52L2004.8 1142.54L1953.01 1166.02L1898.55 1185.11L1841.13 1199.86L1780.79 1209.96L1718.54 1215.01H1644.33L1570.82 1208.44L1497.36 1195.11L1424.55 1173.65L1350.58 1144.36L1276.82 1106.58L1202.1 1059.56L1125.97 1002.24L1055.58 941.939L991.772 882.85L887.086 775.834L818.452 698.917L794.115 669.171L813.625 649.272L873.963 591.143L977.995 498.217L1128.39 374.888L1213.87 312.668L1294.67 263.023L1369.09 223.833L1434.9 194.541L1489.36 174.339L1531.3 161.006L1557.84 154.29L1567.04 152.067L1605.11 142.371L1624.12 138.28L1643.17 135.149L1662.18 132.472L1681.23 130.301L1699.79 129.341L1718.8 129.038L1778.88 131.715L1836.91 139.997L1893.02 153.33L1946.87 171.663L1998.16 194.238L2046.38 221.307L2091.63 252.518L2133.32 287.113L2171.38 325.647L2204.92 367.009L2234.08 411.856L2258.87 458.976L2278.38 508.671L2292.86 560.185L2301.76 613.971L2304.88 669.524L2302.01 724.32Z" fill="#E8F0F5"/>
</svg>
