<svg width="1920" height="416" viewBox="0 0 1920 416" fill="none" xmlns="http://www.w3.org/2000/svg">
<path fill-rule="evenodd" clip-rule="evenodd" d="M1365.93 -941.998C1302.92 -942.14 1240.13 -934.731 1178.88 -919.928C1026.22 -885.388 881.528 -821.879 752.59 -732.813C595.208 -621.706 414.244 -453.48 311.318 -354.493L168.921 -513.478C131.468 -558.658 84.5734 -595.006 31.5657 -619.943C-21.4419 -644.879 -79.2638 -657.792 -137.797 -657.766C-354.914 -657.766 -531 -485.145 -531 -272.375C-531 -59.6044 -355.014 112.713 -137.948 112.713C-82.1451 112.872 -26.9302 101.267 24.1279 78.6481C75.1859 56.0296 120.95 22.9011 158.462 -18.5957L312.375 -190.963C412.687 -81.2702 571.475 94.1782 727.5 208.013C923.598 350.432 1153.79 427.853 1358.89 414.521C1736.55 390.077 2093 109.632 2093 -272.627C2093 -654.887 1767.43 -941.998 1365.93 -941.998ZM18.3766 -64.4526L-2.08716 -46.2714L-23.7589 -29.8578L-47.1393 -16.0706L-71.9291 -4.15167L-97.9747 5.24182L-124.975 12.3124L-153.234 16.8577L-167.414 17.6152L-182.096 18.1203L-211.561 16.8577L-239.97 12.3124L-267.726 5.24182L-293.922 -4.45471L-319.063 -16.9796L-343.048 -31.777L-365.221 -48.2411L-385.334 -67.3314L-404.039 -87.8357L-420.281 -110.411L-434.912 -134.4L-446.778 -159.651L-456.834 -186.317L-463.724 -214.094L-468.099 -243.083L-469.506 -272.829L-468.099 -302.475L-463.724 -331.464L-456.735 -359.341L-446.679 -385.957L-434.812 -411.814L-420.18 -435.803L-403.939 -458.025L-385.233 -478.883L-365.121 -497.518L-342.947 -513.983L-319.063 -528.527L-293.922 -541.052L-267.726 -550.799L-239.97 -557.971L-211.561 -562.365L-182.096 -563.627L-153.234 -562.365L-124.975 -557.971L-97.9747 -551.254L-71.9291 -541.86L-47.1393 -529.942L-23.7589 -515.7L-2.08716 -499.69L18.3766 -481.509L229.259 -272.829L18.3766 -64.4526ZM1890.01 -217.68L1881.16 -163.944L1867.44 -112.885L1848.83 -63.5436L1825 -16.5251L1796.74 27.8168L1763.55 69.179L1726.9 107.41L1685.72 142.005L1641.07 173.519L1592.8 200.538L1541.01 224.022L1486.55 243.112L1429.13 257.859L1368.79 267.96L1306.54 273.01H1232.33L1158.82 266.445L1085.36 253.112L1012.55 231.648L938.582 202.356L864.819 164.58L790.101 117.561L713.974 60.24L643.58 -0.0609741L579.772 -59.1498L475.086 -166.166L406.452 -243.083L382.115 -272.829L401.625 -292.728L461.963 -350.857L565.995 -443.783L716.387 -567.112L801.866 -629.332L882.669 -678.977L957.087 -718.167L1022.9 -747.459L1077.36 -767.661L1119.3 -780.994L1145.84 -787.71L1155.04 -789.933L1193.11 -799.629L1212.12 -803.72L1231.17 -806.851L1250.18 -809.528L1269.23 -811.699L1287.79 -812.659L1306.8 -812.962L1366.88 -810.285L1424.91 -802.003L1481.02 -788.67L1534.87 -770.337L1586.16 -747.762L1634.38 -720.693L1679.63 -689.482L1721.32 -654.887L1759.38 -616.353L1792.92 -574.991L1822.08 -530.144L1846.87 -483.024L1866.38 -433.329L1880.86 -381.815L1889.76 -328.029L1892.88 -272.476L1890.01 -217.68Z" fill="#E8F0F5"/>
</svg>
