<svg width="44" height="44" viewBox="0 0 44 44" fill="none" xmlns="http://www.w3.org/2000/svg">
<rect width="44" height="44" rx="10" fill="#3051D5"/>
<path d="M22 30.5H17C14 30.5 12 29 12 25.5V18.5C12 15 14 13.5 17 13.5H27C30 13.5 32 15 32 18.5V21.5" stroke="white" stroke-width="2" stroke-miterlimit="10" stroke-linecap="round" stroke-linejoin="round"/>
<path d="M27 19L23.87 21.5C22.84 22.32 21.15 22.32 20.12 21.5L17 19" stroke="white" stroke-width="2" stroke-miterlimit="10" stroke-linecap="round" stroke-linejoin="round"/>
<path d="M29.21 24.77L25.6701 28.31C25.5301 28.45 25.4 28.71 25.37 28.9L25.18 30.25C25.11 30.74 25.45 31.0801 25.94 31.0101L27.29 30.82C27.48 30.79 27.75 30.66 27.88 30.52L31.4201 26.9801C32.0301 26.3701 32.3201 25.6601 31.4201 24.7601C30.5301 23.8701 29.82 24.16 29.21 24.77Z" stroke="white" stroke-width="2" stroke-miterlimit="10" stroke-linecap="round" stroke-linejoin="round"/>
<path d="M28.7001 25.28C29.0001 26.36 29.8401 27.2 30.9201 27.5" stroke="white" stroke-width="2" stroke-miterlimit="10" stroke-linecap="round" stroke-linejoin="round"/>
</svg>
