<svg width="392" height="276" viewBox="0 0 392 276" fill="none" xmlns="http://www.w3.org/2000/svg">
<path fill-rule="evenodd" clip-rule="evenodd" d="M608.385 0.792871C557.354 0.67828 506.492 6.67619 456.877 18.6595C333.221 46.6211 216.024 98.035 111.584 170.137C-15.8947 260.084 -162.475 396.271 -245.845 476.405L-361.187 347.7C-391.524 311.124 -429.508 281.698 -472.444 261.511C-515.38 241.324 -562.216 230.871 -609.628 230.892C-785.492 230.892 -928.121 370.636 -928.121 542.883C-928.121 715.13 -785.573 854.629 -609.75 854.629C-564.55 854.758 -519.826 845.363 -478.469 827.052C-437.112 808.741 -400.043 781.922 -369.658 748.329L-244.989 608.789C-163.737 697.591 -35.1183 839.625 91.2609 931.779C250.1 1047.07 436.554 1109.75 602.683 1098.96C908.592 1079.17 1197.31 852.135 1197.31 542.679C1197.31 233.222 933.599 0.792871 608.385 0.792871ZM-483.127 711.206L-499.703 725.924L-517.257 739.212L-536.195 750.373L-556.275 760.022L-577.371 767.626L-599.242 773.35L-622.132 777.03L-633.617 777.643L-645.509 778.052L-669.377 777.03L-692.388 773.35L-714.869 767.626L-736.089 759.777L-756.453 749.637L-775.88 737.658L-793.841 724.33L-810.132 708.875L-825.283 692.276L-838.439 674L-850.29 654.58L-859.902 634.138L-868.047 612.551L-873.627 590.064L-877.171 566.596L-878.311 542.515L-877.171 518.516L-873.627 495.048L-867.967 472.48L-859.821 450.934L-850.209 430.001L-838.357 410.58L-825.202 392.591L-810.05 375.706L-793.759 360.619L-775.799 347.291L-756.453 335.516L-736.089 325.377L-714.869 317.486L-692.388 311.68L-669.377 308.123L-645.509 307.101L-622.132 308.123L-599.242 311.68L-577.371 317.118L-556.275 324.722L-536.195 334.371L-517.257 345.901L-499.703 358.861L-483.127 373.58L-312.313 542.515L-483.127 711.206ZM1032.89 587.161L1025.73 630.663L1014.61 671.997L999.538 711.941L980.233 750.005L957.344 785.902L930.463 819.386L900.772 850.336L867.416 878.342L831.25 903.854L792.151 925.728L750.2 944.739L706.093 960.193L659.581 972.132L610.707 980.309L560.286 984.397H500.171L440.626 979.082L381.123 968.289L322.149 950.913L262.237 927.199L202.49 896.618L141.968 858.554L80.3053 812.15L23.286 763.334L-28.3977 715.498L-113.194 628.864L-168.787 566.596L-188.5 542.515L-172.697 526.407L-123.823 479.348L-39.5571 404.121L82.2601 304.28L151.498 253.91L216.948 213.72L277.226 181.994L330.538 158.281L374.647 141.927L408.615 131.133L430.119 125.696L437.572 123.897L468.403 116.047L483.799 112.735L499.235 110.2L514.63 108.033L530.065 106.275L545.094 105.499L560.49 105.253L609.16 107.42L656.16 114.125L701.612 124.919L745.232 139.76L786.774 158.035L825.833 179.95L862.488 205.216L896.252 233.222L927.082 264.417L954.249 297.902L977.871 334.208L997.95 372.353L1013.75 412.584L1025.48 454.286L1032.69 497.828L1035.22 542.801L1032.89 587.161Z" fill="#3051D5"/>
</svg>
