<svg width="802" height="227" viewBox="0 0 802 227" fill="none" xmlns="http://www.w3.org/2000/svg">
<path fill-rule="evenodd" clip-rule="evenodd" d="M1071.39 0.639062C1020.35 0.524471 969.492 6.52238 919.877 18.5057C796.221 46.4673 679.024 97.8812 574.584 169.984C447.105 259.93 300.525 396.117 217.155 476.251L101.813 347.546C71.4764 310.97 33.4921 281.544 -9.444 261.357C-52.3801 241.171 -99.2157 230.717 -146.628 230.738C-322.492 230.738 -465.121 370.482 -465.121 542.729C-465.121 714.977 -322.573 854.475 -146.75 854.475C-101.55 854.604 -56.8256 845.209 -15.4687 826.898C25.8882 808.588 62.9573 781.769 93.3417 748.175L218.011 608.636C299.263 697.437 427.882 839.471 554.261 931.625C713.1 1046.92 899.554 1109.6 1065.68 1098.8C1371.59 1079.01 1660.31 851.981 1660.31 542.525C1660.31 233.069 1396.6 0.639062 1071.39 0.639062ZM-20.1272 711.052L-36.7028 725.77L-54.2568 739.058L-73.195 750.219L-93.2746 759.868L-114.371 767.473L-136.242 773.197L-159.132 776.876L-170.617 777.489L-182.509 777.898L-206.377 776.876L-229.388 773.197L-251.869 767.473L-273.089 759.623L-293.453 749.483L-312.88 737.504L-330.841 724.176L-347.132 708.721L-362.283 692.122L-375.439 673.847L-387.29 654.426L-396.902 633.984L-405.047 612.397L-410.627 589.91L-414.171 566.443L-415.311 542.361L-414.171 518.362L-410.627 494.894L-404.967 472.326L-396.821 450.78L-387.209 429.847L-375.357 410.426L-362.202 392.437L-347.05 375.552L-330.759 360.465L-312.799 347.137L-293.453 335.362L-273.089 325.223L-251.869 317.332L-229.388 311.526L-206.377 307.969L-182.509 306.947L-159.132 307.969L-136.242 311.526L-114.371 316.964L-93.2746 324.569L-73.195 334.217L-54.2568 345.747L-36.7028 358.707L-20.1272 373.426L150.687 542.361L-20.1272 711.052ZM1495.89 587.008L1488.73 630.509L1477.61 671.843L1462.54 711.788L1443.23 749.851L1420.34 785.748L1393.46 819.233L1363.77 850.182L1330.42 878.188L1294.25 903.701L1255.15 925.574L1213.2 944.585L1169.09 960.04L1122.58 971.978L1073.71 980.155L1023.29 984.243H963.171L903.626 978.928L844.123 968.135L785.149 950.759L725.237 927.046L665.49 896.464L604.968 858.4L543.305 811.996L486.286 763.18L434.602 715.345L349.806 628.71L294.213 566.443L274.5 542.361L290.303 526.253L339.177 479.195L423.443 403.967L545.26 304.126L614.498 253.756L679.948 213.567L740.226 181.84L793.538 158.127L837.647 141.773L871.615 130.979L893.119 125.542L900.572 123.743L931.403 115.893L946.799 112.581L962.235 110.047L977.63 107.88L993.065 106.122L1008.09 105.345L1023.49 105.1L1072.16 107.266L1119.16 113.971L1164.61 124.765L1208.23 139.606L1249.77 157.882L1288.83 179.796L1325.49 205.063L1359.25 233.069L1390.08 264.264L1417.25 297.748L1440.87 334.054L1460.95 372.199L1476.75 412.43L1488.48 454.132L1495.69 497.674L1498.22 542.648L1495.89 587.008Z" fill="#E8F0F5"/>
</svg>
