<svg width="390" height="295" viewBox="0 0 390 295" fill="none" xmlns="http://www.w3.org/2000/svg">
<path fill-rule="evenodd" clip-rule="evenodd" d="M774.385 -102.361C723.354 -102.476 672.492 -96.4776 622.877 -84.4943C499.221 -56.5327 382.024 -5.11884 277.584 66.9835C150.105 156.93 3.52496 293.117 -79.8454 373.251L-195.187 244.546C-225.524 207.97 -263.508 178.544 -306.444 158.357C-349.38 138.171 -396.216 127.717 -443.628 127.738C-619.492 127.738 -762.121 267.482 -762.121 439.729C-762.121 611.977 -619.573 751.475 -443.75 751.475C-398.55 751.604 -353.826 742.209 -312.469 723.898C-271.112 705.588 -234.043 678.769 -203.658 645.175L-78.9893 505.636C2.26324 594.437 130.882 736.471 257.261 828.625C416.1 943.92 602.554 1006.6 768.683 995.802C1074.59 976.014 1363.31 748.981 1363.31 439.525C1363.31 130.069 1099.6 -102.361 774.385 -102.361ZM-317.127 608.052L-333.703 622.77L-351.257 636.058L-370.195 647.219L-390.275 656.868L-411.371 664.473L-433.242 670.197L-456.132 673.876L-467.617 674.489L-479.509 674.898L-503.377 673.876L-526.388 670.197L-548.869 664.473L-570.089 656.623L-590.453 646.483L-609.88 634.504L-627.841 621.176L-644.132 605.721L-659.283 589.122L-672.439 570.847L-684.29 551.426L-693.902 530.984L-702.047 509.397L-707.627 486.91L-711.171 463.443L-712.311 439.361L-711.171 415.362L-707.627 391.894L-701.967 369.326L-693.821 347.78L-684.209 326.847L-672.357 307.426L-659.202 289.437L-644.05 272.552L-627.759 257.465L-609.799 244.137L-590.453 232.362L-570.089 222.223L-548.869 214.332L-526.388 208.526L-503.377 204.969L-479.509 203.947L-456.132 204.969L-433.242 208.526L-411.371 213.964L-390.275 221.569L-370.195 231.217L-351.257 242.747L-333.703 255.707L-317.127 270.426L-146.313 439.361L-317.127 608.052ZM1198.89 484.008L1191.73 527.509L1180.61 568.843L1165.54 608.788L1146.23 646.851L1123.34 682.748L1096.46 716.233L1066.77 747.182L1033.42 775.188L997.25 800.701L958.151 822.574L916.2 841.585L872.093 857.04L825.581 868.978L776.707 877.155L726.286 881.243H666.171L606.626 875.928L547.123 865.135L488.149 847.759L428.237 824.046L368.49 793.464L307.968 755.4L246.305 708.996L189.286 660.18L137.602 612.345L52.8062 525.71L-2.78723 463.443L-22.4999 439.361L-6.69696 423.253L42.1767 376.195L126.443 300.967L248.26 201.126L317.498 150.756L382.948 110.567L443.226 78.8401L496.538 55.1269L540.647 38.773L574.615 27.9795L596.119 22.5419L603.572 20.7429L634.403 12.8931L649.799 9.58136L665.235 7.04652L680.63 4.87964L696.065 3.12163L711.094 2.34481L726.49 2.09951L775.16 4.2664L822.16 10.9715L867.612 21.765L911.232 36.6061L952.774 54.8816L991.833 76.7958L1028.49 102.063L1062.25 130.069L1093.08 161.264L1120.25 194.748L1143.87 231.054L1163.95 269.199L1179.75 309.43L1191.48 351.132L1198.69 394.674L1201.22 439.648L1198.89 484.008Z" fill="#E8F0F5"/>
</svg>
