<svg width="390" height="436" viewBox="0 0 390 436" fill="none" xmlns="http://www.w3.org/2000/svg">
<path fill-rule="evenodd" clip-rule="evenodd" d="M607.385 0.639062C556.354 0.524471 505.492 6.52238 455.877 18.5057C332.221 46.4673 215.024 97.8812 110.584 169.984C-16.8947 259.93 -163.475 396.117 -246.845 476.251L-362.187 347.546C-392.524 310.97 -430.508 281.544 -473.444 261.357C-516.38 241.171 -563.216 230.717 -610.628 230.738C-786.492 230.738 -929.121 370.482 -929.121 542.729C-929.121 714.977 -786.573 854.475 -610.75 854.475C-565.55 854.604 -520.826 845.209 -479.469 826.898C-438.112 808.588 -401.043 781.769 -370.658 748.175L-245.989 608.636C-164.737 697.437 -36.1183 839.471 90.2609 931.625C249.1 1046.92 435.554 1109.6 601.683 1098.8C907.592 1079.01 1196.31 851.981 1196.31 542.525C1196.31 233.069 932.599 0.639062 607.385 0.639062ZM-484.127 711.052L-500.703 725.77L-518.257 739.058L-537.195 750.219L-557.275 759.868L-578.371 767.473L-600.242 773.197L-623.132 776.876L-634.617 777.489L-646.509 777.898L-670.377 776.876L-693.388 773.197L-715.869 767.473L-737.089 759.623L-757.453 749.483L-776.88 737.504L-794.841 724.176L-811.132 708.721L-826.283 692.122L-839.439 673.847L-851.29 654.426L-860.902 633.984L-869.047 612.397L-874.627 589.91L-878.171 566.443L-879.311 542.361L-878.171 518.362L-874.627 494.894L-868.967 472.326L-860.821 450.78L-851.209 429.847L-839.357 410.426L-826.202 392.437L-811.05 375.552L-794.759 360.465L-776.799 347.137L-757.453 335.362L-737.089 325.223L-715.869 317.332L-693.388 311.526L-670.377 307.969L-646.509 306.947L-623.132 307.969L-600.242 311.526L-578.371 316.964L-557.275 324.569L-537.195 334.217L-518.257 345.747L-500.703 358.707L-484.127 373.426L-313.313 542.361L-484.127 711.052ZM1031.89 587.008L1024.73 630.509L1013.61 671.843L998.538 711.788L979.233 749.851L956.344 785.748L929.463 819.233L899.772 850.182L866.416 878.188L830.25 903.701L791.151 925.574L749.2 944.585L705.093 960.04L658.581 971.978L609.707 980.155L559.286 984.243H499.171L439.626 978.928L380.123 968.135L321.149 950.759L261.237 927.046L201.49 896.464L140.968 858.4L79.3053 811.996L22.286 763.18L-29.3977 715.345L-114.194 628.71L-169.787 566.443L-189.5 542.361L-173.697 526.253L-124.823 479.195L-40.5571 403.967L81.2601 304.126L150.498 253.756L215.948 213.567L276.226 181.84L329.538 158.127L373.647 141.773L407.615 130.979L429.119 125.542L436.572 123.743L467.403 115.893L482.799 112.581L498.235 110.047L513.63 107.88L529.065 106.122L544.094 105.345L559.49 105.1L608.16 107.266L655.16 113.971L700.612 124.765L744.232 139.606L785.774 157.882L824.833 179.796L861.488 205.063L895.252 233.069L926.082 264.264L953.249 297.748L976.871 334.054L996.95 372.199L1012.75 412.43L1024.48 454.132L1031.69 497.674L1034.22 542.648L1031.89 587.008Z" fill="#3051D5"/>
</svg>
