<svg width="252" height="295" viewBox="0 0 252 295" fill="none" xmlns="http://www.w3.org/2000/svg">
<path fill-rule="evenodd" clip-rule="evenodd" d="M-1285.07 -383.998C-1234.04 -384.113 -1183.18 -378.115 -1133.56 -366.132C-1009.91 -338.17 -892.711 -286.756 -788.272 -214.654C-660.793 -124.708 -514.212 11.4794 -430.842 91.6135L-315.501 -37.0916C-285.164 -73.6676 -247.18 -103.093 -204.243 -123.28C-161.307 -143.467 -114.472 -153.921 -67.0597 -153.899C108.804 -153.899 251.434 -14.1554 251.434 158.092C251.434 330.339 108.886 469.838 -66.9374 469.838C-112.138 469.966 -156.862 460.572 -198.219 442.261C-239.576 423.95 -276.645 397.131 -307.029 363.538L-431.698 223.998C-512.951 312.8 -641.569 454.833 -767.948 546.987C-926.788 662.282 -1113.24 724.958 -1279.37 714.165C-1585.28 694.377 -1874 467.344 -1874 157.888C-1874 -151.569 -1610.29 -383.998 -1285.07 -383.998ZM-193.56 326.414L-176.985 341.133L-159.431 354.42L-140.493 365.582L-120.413 375.231L-99.316 382.835L-77.4456 388.559L-54.5559 392.239L-43.0703 392.852L-31.178 393.261L-7.31094 392.239L15.7 388.559L38.182 382.835L59.4012 374.985L79.7652 364.846L99.1926 352.867L117.153 339.538L133.444 324.084L148.595 307.485L161.751 289.209L173.603 269.789L183.214 249.347L191.36 227.759L196.94 205.273L200.484 181.805L201.623 157.724L200.484 133.725L196.94 110.257L191.279 87.6886L183.134 66.1422L173.521 45.2093L161.67 25.789L148.515 7.7998L133.363 -9.0856L117.072 -24.1721L99.111 -37.5005L79.7652 -49.2752L59.4012 -59.4147L38.182 -67.3054L15.7 -73.1111L-7.31094 -76.668L-31.178 -77.6902L-54.5559 -76.668L-77.4456 -73.1111L-99.316 -67.6733L-120.413 -60.0688L-140.493 -50.4201L-159.431 -38.8906L-176.985 -25.9301L-193.56 -11.2116L-364.375 157.724L-193.56 326.414ZM-1709.58 202.37L-1702.41 245.871L-1691.3 287.206L-1676.23 327.15L-1656.92 365.214L-1634.03 401.111L-1607.15 434.595L-1577.46 465.545L-1544.1 493.551L-1507.94 519.063L-1468.84 540.936L-1426.89 559.948L-1382.78 575.402L-1336.27 587.341L-1287.39 595.518L-1236.97 599.606H-1176.86L-1117.31 594.291L-1057.81 583.497L-998.837 566.121L-938.925 542.408L-879.177 511.826L-818.656 473.763L-756.993 427.359L-699.974 378.542L-648.29 330.707L-563.494 244.073L-507.9 181.805L-488.188 157.724L-503.991 141.615L-552.864 94.5572L-637.13 19.3293L-758.948 -80.5112L-828.185 -130.881L-893.636 -171.071L-953.913 -202.797L-1007.23 -226.511L-1051.33 -242.864L-1085.3 -253.658L-1106.81 -259.096L-1114.26 -260.895L-1145.09 -268.744L-1160.49 -272.056L-1175.92 -274.591L-1191.32 -276.758L-1206.75 -278.516L-1221.78 -279.293L-1237.18 -279.538L-1285.85 -277.371L-1332.85 -270.666L-1378.3 -259.872L-1421.92 -245.031L-1463.46 -226.756L-1502.52 -204.842L-1539.18 -179.575L-1572.94 -151.569L-1603.77 -120.374L-1630.94 -86.8892L-1654.56 -50.5836L-1674.64 -12.4382L-1690.44 27.7924L-1702.17 69.4948L-1709.38 113.037L-1711.9 158.01L-1709.58 202.37Z" fill="#E8F0F5"/>
</svg>
