<svg width="390" height="330" viewBox="0 0 390 330" fill="none" xmlns="http://www.w3.org/2000/svg">
<path fill-rule="evenodd" clip-rule="evenodd" d="M273.506 -769.998C222.475 -770.113 171.613 -764.115 121.998 -752.132C-1.65771 -724.17 -118.855 -672.756 -223.295 -600.654C-350.774 -510.708 -497.354 -374.521 -580.724 -294.387L-696.065 -423.092C-726.403 -459.668 -764.387 -489.093 -807.323 -509.28C-850.259 -529.467 -897.095 -539.921 -944.507 -539.899C-1120.37 -539.899 -1263 -400.155 -1263 -227.908C-1263 -55.6608 -1120.45 83.8378 -944.629 83.8378C-899.428 83.9663 -854.704 74.5715 -813.348 56.2609C-771.991 37.9502 -734.922 11.1312 -704.537 -22.4624L-579.868 -162.002C-498.616 -73.2003 -369.997 68.8333 -243.618 160.987C-84.7786 276.282 101.675 338.958 267.805 328.165C573.713 308.377 862.434 81.3439 862.434 -228.112C862.434 -537.569 598.72 -769.998 273.506 -769.998ZM-818.006 -59.5857L-834.582 -44.8672L-852.136 -31.5797L-871.074 -20.4182L-891.154 -10.7693L-912.25 -3.16486L-934.121 2.55914L-957.01 6.23871L-968.496 6.85199L-980.388 7.26086L-1004.26 6.23871L-1027.27 2.55914L-1049.75 -3.16486L-1070.97 -11.0146L-1091.33 -21.1541L-1110.76 -33.1333L-1128.72 -46.4617L-1145.01 -61.9161L-1160.16 -78.5153L-1173.32 -96.7908L-1185.17 -116.211L-1194.78 -136.653L-1202.93 -158.241L-1208.51 -180.727L-1212.05 -204.195L-1213.19 -228.276L-1212.05 -252.275L-1208.51 -275.743L-1202.85 -298.311L-1194.7 -319.858L-1185.09 -340.791L-1173.24 -360.211L-1160.08 -378.2L-1144.93 -395.086L-1128.64 -410.172L-1110.68 -423.501L-1091.33 -435.275L-1070.97 -445.415L-1049.75 -453.305L-1027.27 -459.111L-1004.26 -462.668L-980.388 -463.69L-957.01 -462.668L-934.121 -459.111L-912.25 -453.673L-891.154 -446.069L-871.074 -436.42L-852.136 -424.891L-834.582 -411.93L-818.006 -397.212L-647.192 -228.276L-818.006 -59.5857ZM698.016 -183.63L690.848 -140.129L679.729 -98.7941L664.659 -58.8498L645.354 -20.7861L622.465 15.1107L595.584 48.5952L565.893 79.545L532.537 107.551L496.371 133.063L457.272 154.936L415.322 173.948L371.214 189.402L324.702 201.341L275.828 209.518L225.407 213.606H165.292L105.747 208.291L46.2444 197.497L-12.7299 180.121L-72.6416 156.408L-132.389 125.826L-192.911 87.7628L-254.574 41.3586L-311.593 -7.4577L-363.277 -55.2928L-448.073 -141.927L-503.666 -204.195L-523.379 -228.276L-507.576 -244.385L-458.702 -291.443L-374.436 -366.671L-252.619 -466.511L-183.381 -516.881L-117.931 -557.071L-57.6531 -588.797L-4.34058 -612.511L39.7682 -628.864L73.7357 -639.658L95.2404 -645.096L102.693 -646.895L133.524 -654.744L148.92 -658.056L164.356 -660.591L179.751 -662.758L195.186 -664.516L210.216 -665.293L225.611 -665.538L274.281 -663.371L321.281 -656.666L366.733 -645.872L410.353 -631.031L451.895 -612.756L490.954 -590.842L527.609 -565.575L561.373 -537.569L592.203 -506.374L619.37 -472.889L642.992 -436.584L663.071 -398.438L678.873 -358.208L690.603 -316.505L697.812 -272.963L700.337 -227.99L698.016 -183.63Z" fill="#3051D5"/>
</svg>
