<svg width="390" height="53" viewBox="0 0 390 53" fill="none" xmlns="http://www.w3.org/2000/svg">
<path fill-rule="evenodd" clip-rule="evenodd" d="M440.506 -1047C389.475 -1047.11 338.613 -1041.12 288.998 -1029.13C165.342 -1001.17 48.1448 -949.756 -56.2948 -877.654C-183.774 -787.708 -330.354 -651.521 -413.724 -571.387L-529.065 -700.092C-559.403 -736.668 -597.387 -766.093 -640.323 -786.28C-683.259 -806.467 -730.095 -816.921 -777.507 -816.899C-953.37 -816.899 -1096 -677.155 -1096 -504.908C-1096 -332.661 -953.452 -193.162 -777.629 -193.162C-732.428 -193.034 -687.704 -202.428 -646.348 -220.739C-604.991 -239.05 -567.922 -265.869 -537.537 -299.462L-412.868 -439.002C-331.616 -350.2 -202.997 -208.167 -76.618 -116.013C82.2214 -0.717773 268.675 61.9584 434.805 51.1648C740.713 31.3766 1029.43 -195.656 1029.43 -505.112C1029.43 -814.569 765.72 -1047 440.506 -1047ZM-651.006 -336.586L-667.582 -321.867L-685.136 -308.58L-704.074 -297.418L-724.154 -287.769L-745.25 -280.165L-767.121 -274.441L-790.01 -270.761L-801.496 -270.148L-813.388 -269.739L-837.255 -270.761L-860.266 -274.441L-882.748 -280.165L-903.968 -288.015L-924.332 -298.154L-943.759 -310.133L-961.72 -323.462L-978.011 -338.916L-993.162 -355.515L-1006.32 -373.791L-1018.17 -393.211L-1027.78 -413.653L-1035.93 -435.241L-1041.51 -457.727L-1045.05 -481.195L-1046.19 -505.276L-1045.05 -529.275L-1041.51 -552.743L-1035.85 -575.311L-1027.7 -596.858L-1018.09 -617.791L-1006.24 -637.211L-993.081 -655.2L-977.929 -672.086L-961.638 -687.172L-943.677 -700.501L-924.332 -712.275L-903.968 -722.415L-882.748 -730.305L-860.266 -736.111L-837.255 -739.668L-813.388 -740.69L-790.01 -739.668L-767.121 -736.111L-745.25 -730.673L-724.154 -723.069L-704.074 -713.42L-685.136 -701.891L-667.582 -688.93L-651.006 -674.212L-480.192 -505.276L-651.006 -336.586ZM865.016 -460.63L857.848 -417.129L846.729 -375.794L831.659 -335.85L812.354 -297.786L789.465 -261.889L762.584 -228.405L732.893 -197.455L699.537 -169.449L663.371 -143.937L624.272 -122.064L582.322 -103.052L538.214 -87.5978L491.702 -75.6594L442.828 -67.4825L392.407 -63.394H332.292L272.747 -68.7091L213.244 -79.5026L154.27 -96.8786L94.3584 -120.592L34.6106 -151.174L-25.9108 -189.237L-87.5736 -235.641L-144.593 -284.458L-196.277 -332.293L-281.073 -418.927L-336.666 -481.195L-356.379 -505.276L-340.576 -521.385L-291.702 -568.443L-207.436 -643.671L-85.6188 -743.511L-16.381 -793.881L49.0692 -834.071L109.347 -865.797L162.659 -889.511L206.768 -905.864L240.736 -916.658L262.24 -922.096L269.693 -923.895L300.524 -931.744L315.92 -935.056L331.356 -937.591L346.751 -939.758L362.186 -941.516L377.216 -942.293L392.611 -942.538L441.281 -940.371L488.281 -933.666L533.733 -922.872L577.353 -908.031L618.895 -889.756L657.954 -867.842L694.609 -842.575L728.373 -814.569L759.203 -783.374L786.37 -749.889L809.992 -713.584L830.071 -675.438L845.873 -635.208L857.603 -593.505L864.812 -549.963L867.337 -504.99L865.016 -460.63Z" fill="#E8F0F5"/>
</svg>
