<svg width="392" height="177" viewBox="0 0 392 177" fill="none" xmlns="http://www.w3.org/2000/svg">
<path fill-rule="evenodd" clip-rule="evenodd" d="M274.506 -922.845C223.475 -922.959 172.613 -916.961 122.998 -904.978C-0.657715 -877.016 -117.855 -825.602 -222.295 -753.5C-349.774 -663.554 -496.354 -527.367 -579.724 -447.233L-695.065 -575.938C-725.403 -612.514 -763.387 -641.939 -806.323 -662.126C-849.259 -682.313 -896.095 -692.767 -943.507 -692.746C-1119.37 -692.746 -1262 -553.002 -1262 -380.754C-1262 -208.507 -1119.45 -69.0084 -943.629 -69.0084C-898.428 -68.8799 -853.704 -78.2747 -812.348 -96.5853C-770.991 -114.896 -733.922 -141.715 -703.537 -175.309L-578.868 -314.848C-497.616 -226.046 -368.997 -84.0129 -242.618 8.14117C-83.7786 123.436 102.675 186.112 268.805 175.319C574.713 155.53 863.434 -71.5023 863.434 -380.959C863.434 -690.415 599.72 -922.845 274.506 -922.845ZM-817.006 -212.432L-833.582 -197.713L-851.136 -184.426L-870.074 -173.264L-890.154 -163.616L-911.25 -156.011L-933.121 -150.287L-956.01 -146.607L-967.496 -145.994L-979.388 -145.585L-1003.26 -146.607L-1026.27 -150.287L-1048.75 -156.011L-1069.97 -163.861L-1090.33 -174L-1109.76 -185.979L-1127.72 -199.308L-1144.01 -214.762L-1159.16 -231.362L-1172.32 -249.637L-1184.17 -269.057L-1193.78 -289.5L-1201.93 -311.087L-1207.51 -333.573L-1211.05 -357.041L-1212.19 -381.122L-1211.05 -405.122L-1207.51 -428.589L-1201.85 -451.158L-1193.7 -472.704L-1184.09 -493.637L-1172.24 -513.057L-1159.08 -531.046L-1143.93 -547.932L-1127.64 -563.018L-1109.68 -576.347L-1090.33 -588.121L-1069.97 -598.261L-1048.75 -606.152L-1026.27 -611.957L-1003.26 -615.514L-979.388 -616.536L-956.01 -615.514L-933.121 -611.957L-911.25 -606.52L-890.154 -598.915L-870.074 -589.266L-851.136 -577.737L-833.582 -564.776L-817.006 -550.058L-646.192 -381.122L-817.006 -212.432ZM699.016 -336.476L691.848 -292.975L680.729 -251.64L665.659 -211.696L646.354 -173.632L623.465 -137.736L596.584 -104.251L566.893 -73.3012L533.537 -45.2952L497.371 -19.7831L458.272 2.09021L416.322 21.1016L372.214 36.556L325.702 48.4944L276.828 56.6713L226.407 60.7598H166.292L106.747 55.4447L47.2444 44.6512L-11.7299 27.2752L-71.6416 3.56201L-131.389 -27.0197L-191.911 -65.0834L-253.574 -111.488L-310.593 -160.304L-362.277 -208.139L-447.073 -294.774L-502.666 -357.041L-522.379 -381.122L-506.576 -397.231L-457.702 -444.289L-373.436 -519.517L-251.619 -619.357L-182.381 -669.727L-116.931 -709.917L-56.6531 -741.644L-3.34058 -765.357L40.7682 -781.711L74.7357 -792.504L96.2404 -797.942L103.693 -799.741L134.524 -807.591L149.92 -810.902L165.356 -813.437L180.751 -815.604L196.186 -817.362L211.216 -818.139L226.611 -818.384L275.281 -816.217L322.281 -809.512L367.733 -798.719L411.353 -783.878L452.895 -765.602L491.954 -743.688L528.609 -718.421L562.373 -690.415L593.203 -659.22L620.37 -625.735L643.992 -589.43L664.071 -551.284L679.873 -511.054L691.603 -469.351L698.812 -425.809L701.337 -380.836L699.016 -336.476Z" fill="#3051D5"/>
</svg>
