<svg width="769" height="295" viewBox="0 0 769 295" fill="none" xmlns="http://www.w3.org/2000/svg">
<path fill-rule="evenodd" clip-rule="evenodd" d="M179.385 -353.361C128.354 -353.476 77.492 -347.478 27.8768 -335.494C-95.7788 -307.533 -212.976 -256.119 -317.416 -184.016C-444.895 -94.0701 -591.475 42.1169 -674.845 122.251L-790.187 -6.45421C-820.524 -43.0302 -858.508 -72.4556 -901.444 -92.6425C-944.38 -112.829 -991.216 -123.283 -1038.63 -123.262C-1214.49 -123.262 -1357.12 16.4821 -1357.12 188.729C-1357.12 360.977 -1214.57 500.475 -1038.75 500.475C-993.55 500.604 -948.826 491.209 -907.469 472.898C-866.112 454.588 -829.043 427.769 -798.658 394.175L-673.989 254.636C-592.737 343.437 -464.118 485.471 -337.739 577.625C-178.9 692.92 7.55373 755.596 173.684 744.802C479.592 725.014 768.313 497.981 768.313 188.525C768.313 -120.931 504.599 -353.361 179.385 -353.361ZM-912.127 357.052L-928.703 371.77L-946.257 385.058L-965.195 396.219L-985.275 405.868L-1006.37 413.473L-1028.24 419.197L-1051.13 422.876L-1062.62 423.489L-1074.51 423.898L-1098.38 422.876L-1121.39 419.197L-1143.87 413.473L-1165.09 405.623L-1185.45 395.483L-1204.88 383.504L-1222.84 370.176L-1239.13 354.721L-1254.28 338.122L-1267.44 319.847L-1279.29 300.426L-1288.9 279.984L-1297.05 258.397L-1302.63 235.91L-1306.17 212.443L-1307.31 188.361L-1306.17 164.362L-1302.63 140.894L-1296.97 118.326L-1288.82 96.7797L-1279.21 75.8467L-1267.36 56.4265L-1254.2 38.4373L-1239.05 21.5518L-1222.76 6.46538L-1204.8 -6.86308L-1185.45 -18.6378L-1165.09 -28.7772L-1143.87 -36.6679L-1121.39 -42.4736L-1098.38 -46.0306L-1074.51 -47.0527L-1051.13 -46.0306L-1028.24 -42.4736L-1006.37 -37.0359L-985.275 -29.4314L-965.195 -19.7827L-946.257 -8.25314L-928.703 4.70737L-912.127 19.4259L-741.313 188.361L-912.127 357.052ZM603.895 233.008L596.726 276.509L585.608 317.843L570.538 357.788L551.233 395.851L528.344 431.748L501.463 465.233L471.772 496.182L438.416 524.188L402.25 549.7L363.151 571.574L321.2 590.585L277.093 606.04L230.581 617.978L181.707 626.155L131.286 630.243H71.1713L11.6264 624.928L-47.8768 614.135L-106.851 596.759L-166.763 573.046L-226.511 542.464L-287.032 504.4L-348.695 457.996L-405.714 409.18L-457.398 361.345L-542.194 274.71L-597.787 212.443L-617.5 188.361L-601.697 172.253L-552.823 125.195L-468.557 49.9668L-346.74 -49.8737L-277.502 -100.244L-212.052 -140.433L-151.774 -172.16L-98.4617 -195.873L-54.3529 -212.227L-20.3853 -223.021L1.11922 -228.458L8.57178 -230.257L39.4032 -238.107L54.7985 -241.419L70.2346 -243.953L85.63 -246.12L101.065 -247.878L116.094 -248.655L131.49 -248.9L180.16 -246.734L227.16 -240.029L272.612 -229.235L316.232 -214.394L357.774 -196.118L396.833 -174.204L433.488 -148.937L467.252 -120.931L498.082 -89.7363L525.248 -56.2518L548.871 -19.9461L568.95 18.1993L584.752 58.4298L596.482 100.132L603.691 143.674L606.215 188.648L603.895 233.008Z" fill="#E8F0F5"/>
</svg>
