<svg width="802" height="227" viewBox="0 0 802 227" fill="none" xmlns="http://www.w3.org/2000/svg">
<path fill-rule="evenodd" clip-rule="evenodd" d="M737.506 -872.998C686.475 -873.113 635.613 -867.115 585.998 -855.132C462.342 -827.17 345.145 -775.756 240.705 -703.654C113.226 -613.708 -33.3539 -477.521 -116.724 -397.387L-232.065 -526.092C-262.403 -562.668 -300.387 -592.093 -343.323 -612.28C-386.259 -632.467 -433.095 -642.921 -480.507 -642.899C-656.37 -642.899 -799 -503.155 -799 -330.908C-799 -158.661 -656.452 -19.1622 -480.629 -19.1622C-435.428 -19.0337 -390.704 -28.4285 -349.348 -46.7391C-307.991 -65.0498 -270.922 -91.8688 -240.537 -125.462L-115.868 -265.002C-34.6157 -176.2 94.0028 -34.1667 220.382 57.9874C379.221 173.282 565.675 235.958 731.805 225.165C1037.71 205.377 1326.43 -21.6561 1326.43 -331.112C1326.43 -640.569 1062.72 -872.998 737.506 -872.998ZM-354.006 -162.586L-370.582 -147.867L-388.136 -134.58L-407.074 -123.418L-427.154 -113.769L-448.25 -106.165L-470.121 -100.441L-493.01 -96.7613L-504.496 -96.148L-516.388 -95.7391L-540.255 -96.7613L-563.266 -100.441L-585.748 -106.165L-606.968 -114.015L-627.332 -124.154L-646.759 -136.133L-664.72 -149.462L-681.011 -164.916L-696.162 -181.515L-709.318 -199.791L-721.169 -219.211L-730.78 -239.653L-738.926 -261.241L-744.506 -283.727L-748.05 -307.195L-749.19 -331.276L-748.05 -355.275L-744.506 -378.743L-738.846 -401.311L-730.7 -422.858L-721.088 -443.791L-709.236 -463.211L-696.081 -481.2L-680.929 -498.086L-664.638 -513.172L-646.677 -526.501L-627.332 -538.275L-606.968 -548.415L-585.748 -556.305L-563.266 -562.111L-540.255 -565.668L-516.388 -566.69L-493.01 -565.668L-470.121 -562.111L-448.25 -556.673L-427.154 -549.069L-407.074 -539.42L-388.136 -527.891L-370.582 -514.93L-354.006 -500.212L-183.192 -331.276L-354.006 -162.586ZM1162.02 -286.63L1154.85 -243.129L1143.73 -201.794L1128.66 -161.85L1109.35 -123.786L1086.46 -87.8893L1059.58 -54.4048L1029.89 -23.455L996.537 4.55103L960.371 30.063L921.272 51.9364L879.322 70.9478L835.214 86.4022L788.702 98.3406L739.828 106.518L689.407 110.606H629.292L569.747 105.291L510.244 94.4974L451.27 77.1214L391.358 53.4082L331.611 22.8265L271.089 -15.2372L209.426 -61.6414L152.407 -110.458L100.723 -158.293L15.9273 -244.927L-39.6661 -307.195L-59.3788 -331.276L-43.5759 -347.385L5.29779 -394.443L89.564 -469.671L211.381 -569.511L280.619 -619.881L346.069 -660.071L406.347 -691.797L459.659 -715.511L503.768 -731.864L537.736 -742.658L559.24 -748.096L566.693 -749.895L597.524 -757.744L612.92 -761.056L628.356 -763.591L643.751 -765.758L659.186 -767.516L674.216 -768.293L689.611 -768.538L738.281 -766.371L785.281 -759.666L830.733 -748.872L874.353 -734.031L915.895 -715.756L954.954 -693.842L991.609 -668.575L1025.37 -640.569L1056.2 -609.374L1083.37 -575.889L1106.99 -539.584L1127.07 -501.438L1142.87 -461.208L1154.6 -419.505L1161.81 -375.963L1164.34 -330.99L1162.02 -286.63Z" fill="#E8F0F5"/>
</svg>
