<svg width="1156" height="160" viewBox="0 0 1156 160" fill="none" xmlns="http://www.w3.org/2000/svg">
<path fill-rule="evenodd" clip-rule="evenodd" d="M983.886 -21.999C951.209 -22.0722 918.64 -18.2368 886.869 -10.574C807.688 7.30645 732.641 40.1836 665.765 86.2903C584.135 143.808 490.274 230.894 436.888 282.136L363.031 199.835C343.605 176.446 319.282 157.629 291.788 144.72C264.294 131.812 234.304 125.127 203.944 125.141C91.3313 125.141 0 214.501 0 324.647C0 434.792 91.2791 523.996 203.866 523.996C232.809 524.079 261.448 518.071 287.93 506.362C314.413 494.653 338.15 477.503 357.606 456.021L437.436 366.791C489.466 423.577 571.825 514.402 652.751 573.331C754.462 647.057 873.855 687.136 980.235 680.234C1176.12 667.58 1361 522.402 1361 324.516C1361 126.631 1192.13 -21.999 983.886 -21.999ZM284.947 432.283L274.333 441.695L263.093 450.191L250.966 457.329L238.108 463.499L224.599 468.362L210.594 472.022L195.937 474.375L188.583 474.767L180.967 475.028L165.684 474.375L150.95 472.022L136.553 468.362L122.966 463.342L109.926 456.858L97.486 449.198L85.985 440.675L75.5531 430.792L65.8515 420.178L57.4271 408.491L49.8381 396.073L43.6837 383.001L38.4677 369.197L34.8945 354.817L32.6252 339.811L31.8955 324.412L32.6252 309.065L34.8945 294.058L38.5193 279.627L43.7352 265.849L49.8903 252.463L57.4793 240.044L65.9031 228.541L75.6053 217.743L86.0372 208.096L97.5382 199.573L109.926 192.044L122.966 185.56L136.553 180.514L150.95 176.801L165.684 174.527L180.967 173.873L195.937 174.527L210.594 176.801L224.599 180.279L238.108 185.141L250.966 191.311L263.093 198.684L274.333 206.972L284.947 216.384L394.326 324.412L284.947 432.283ZM1255.72 352.961L1251.13 380.779L1244.01 407.21L1234.36 432.753L1221.99 457.093L1207.34 480.048L1190.13 501.46L1171.11 521.251L1149.75 539.16L1126.6 555.474L1101.56 569.461L1074.7 581.618L1046.45 591.501L1016.67 599.135L985.373 604.364L953.086 606.978H914.592L876.463 603.579L838.361 596.677L800.598 585.566L762.234 570.402L723.975 550.847L685.221 526.506L645.735 496.833L609.224 465.616L576.129 435.028L521.83 379.628L486.232 339.811L473.609 324.412L483.728 314.111L515.024 284.019L568.983 235.914L646.987 172.069L691.323 139.86L733.233 114.16L771.831 93.8721L805.97 78.7084L834.214 68.2508L855.965 61.3487L869.735 57.8716L874.507 56.7212L894.25 51.7015L904.108 49.5838L913.992 47.9629L923.851 46.5772L933.734 45.4531L943.358 44.9563L953.217 44.7995L984.382 46.1851L1014.48 50.4727L1043.58 57.3748L1071.51 66.8651L1098.12 78.5516L1123.13 92.5649L1146.6 108.722L1168.22 126.631L1187.96 146.579L1205.36 167.991L1220.48 191.207L1233.34 215.599L1243.46 241.325L1250.97 267.992L1255.59 295.836L1257.2 324.595L1255.72 352.961Z" fill="#4A94FF"/>
</svg>
