<svg width="299" height="101" viewBox="0 0 299 101" fill="none" xmlns="http://www.w3.org/2000/svg">
<path d="M282 1L282 34" stroke="#2F6DC8" stroke-linecap="round" stroke-linejoin="round"/>
<path d="M150 34L150 67" stroke="#2F6DC8" stroke-linecap="round" stroke-linejoin="round"/>
<path d="M282 34L150 34" stroke="#2F6DC8" stroke-linecap="round" stroke-linejoin="round"/>
<path d="M291 67L291 98.951" stroke="#2F6DC8" stroke-linecap="round" stroke-linejoin="round"/>
<path d="M196 67L196 98.951" stroke="#2F6DC8" stroke-linecap="round" stroke-linejoin="round"/>
<path d="M104 67L104 98.951" stroke="#2F6DC8" stroke-linecap="round" stroke-linejoin="round"/>
<path d="M8 66.9633L8 98.9144" stroke="#2F6DC8" stroke-linecap="round" stroke-linejoin="round"/>
<path d="M8 67L291 67" stroke="#2F6DC8" stroke-linecap="round" stroke-linejoin="round"/>
<path d="M298 93L291 100L284 93" stroke="#2F6DC8" stroke-linecap="round" stroke-linejoin="round"/>
<path d="M203 93L196 100L189 93" stroke="#2F6DC8" stroke-linecap="round" stroke-linejoin="round"/>
<path d="M111 93L104 100L97 93" stroke="#2F6DC8" stroke-linecap="round" stroke-linejoin="round"/>
<path d="M15 93L8 100L1 93" stroke="#2F6DC8" stroke-linecap="round" stroke-linejoin="round"/>
<path d="M289 7L282 1L275 7" stroke="#2F6DC8" stroke-linecap="round" stroke-linejoin="round"/>
</svg>
